# xmcd
#
# Track frame offsets: 
#        150
#        16305
#        41750
#        56740
#        74285
#        91247
#        107827
#        125030
#        144317
#        162740
#        178192
#        196895
#        221915
#        242325
#        269430
#        290560
#
# Disc length: 4173 seconds
#
# Revision: 1
# Processed by: cddbd v1.5.2PL0 Copyright (c) Steve Scherf et al.
# Submitted via: ExactAudioCopy v1.0b4
#
DISCID=f9104b10
DTITLE=Bobby Bland - Greatest Hits Vol. 2, The ABC-Dunhill -- MCA Reco
DTITLE=rdings
DYEAR=1998
DGENRE=Blues
TTITLE0=This Time I'm Gone For Good
TTITLE1=Goin' Down Slow
TTITLE2=I Wouldn't Treat A Dog (The Way You Treated Me)
TTITLE3=Ain't No Love In The Heart Of The City
TTITLE4=Yolanda
TTITLE5=I Ain't Gonna Be The First To Cry
TTITLE6=Today I Started Loving You Again
TTITLE7=I Hate You
TTITLE8=The Soul Of A Man
TTITLE9=It Ain't The Real Thing
TTITLE10=Sittin' On A Poor Man's Throne
TTITLE11=Let The Good Times Roll
TTITLE12=You'd Be A Millionaire
TTITLE13=Love To See You Smile
TTITLE14=Recess In Heaven
TTITLE15=Soon As The Weather Breaks
EXTD=
EXTT0=
EXTT1=
EXTT2=
EXTT3=
EXTT4=
EXTT5=
EXTT6=
EXTT7=
EXTT8=
EXTT9=
EXTT10=
EXTT11=
EXTT12=
EXTT13=
EXTT14=
EXTT15=
PLAYORDER=
